<svg width="250" height="71" viewBox="0 0 250 71" fill="none" xmlns="http://www.w3.org/2000/svg">
<path d="M95.6163 34.5346H91.3499V41.5246H83.5287V15.2207H96.1675C98.6688 15.2207 100.842 15.6157 102.684 16.4056C104.526 17.1956 105.949 18.3208 106.95 19.7878C107.952 21.2548 108.451 22.9775 108.451 24.9556C108.451 26.8608 107.983 28.5204 107.048 29.9343C106.113 31.3516 104.777 32.4568 103.04 33.2601L109.005 41.528H100.633L95.6163 34.5346ZM99.3281 22.0946C98.5118 21.4175 97.3013 21.0789 95.6931 21.0789H91.3499V28.7826H95.6966C97.3013 28.7826 98.5153 28.4507 99.3316 27.7868C100.148 27.123 100.556 26.1771 100.556 24.949C100.553 23.7243 100.144 22.7717 99.3281 22.0946Z" fill="#333333"/>
<path d="M142.851 35.774V41.5227H120.653V15.2188H142.334V20.9674H128.394V25.4018H140.677V30.9646H128.394V35.774H142.851V35.774Z" fill="#333333"/>
<path d="M155.095 15.2188H162.917V35.6246H176.107V41.5227H155.095V15.2188Z" fill="#333333"/>
<path d="M205.923 36.4152H194.233L192.059 41.5266H184.081L196.284 15.2227H203.987L216.231 41.5266H208.096L205.923 36.4152ZM203.634 30.9287L200.08 22.5114L196.525 30.9287H203.634Z" fill="#333333"/>
<path d="M239.416 32.0937V41.5266H231.595V31.9808L221.049 15.2227H229.306L235.861 25.6679L242.416 15.2227H250L239.416 32.0937Z" fill="#333333"/>
<path d="M97.1827 47.7588L94.0047 56.6905H93.279L90.3696 48.6782L87.4463 56.6905H86.7207L83.5287 47.7588H84.2543L87.1114 55.7976L90.0487 47.7588H90.7045L93.6279 55.8109L96.5094 47.7588H97.1827Z" fill="#333333"/>
<path d="M118.089 54.1779H112.644L111.451 56.6905H110.715L115.033 47.7588H115.717L120.036 56.6905H119.3L118.089 54.1779ZM117.835 53.6303L115.368 48.4757L112.916 53.6303H117.835Z" fill="#333333"/>
<path d="M135.65 56.4132C135.029 56.1875 134.545 55.8955 134.196 55.5403L134.503 55.0557C134.834 55.3877 135.277 55.6565 135.835 55.8656C136.393 56.0747 136.983 56.1776 137.6 56.1776C138.494 56.1776 139.17 56.015 139.624 55.693C140.077 55.371 140.308 54.9495 140.308 54.4284C140.308 54.0301 140.185 53.7082 139.945 53.4725C139.704 53.2335 139.404 53.051 139.045 52.9249C138.685 52.7987 138.204 52.666 137.597 52.5299C136.91 52.3672 136.355 52.2113 135.94 52.0586C135.525 51.9059 135.172 51.6702 134.879 51.3516C134.59 51.033 134.443 50.6048 134.443 50.0704C134.443 49.6356 134.565 49.2406 134.806 48.8789C135.047 48.5171 135.417 48.2316 135.912 48.0159C136.407 47.8035 137.028 47.6973 137.768 47.6973C138.288 47.6973 138.797 47.7703 139.296 47.913C139.798 48.0591 140.231 48.2549 140.597 48.5005L140.342 49.0249C139.966 48.7793 139.554 48.5901 139.1 48.464C138.647 48.3379 138.204 48.2715 137.768 48.2715C136.899 48.2715 136.243 48.4374 135.797 48.7694C135.35 49.1013 135.127 49.5294 135.127 50.0572C135.127 50.4588 135.249 50.7774 135.49 51.0131C135.731 51.252 136.031 51.4346 136.39 51.5607C136.746 51.6868 137.234 51.8229 137.852 51.969C138.539 52.1316 139.09 52.2876 139.502 52.4403C139.913 52.593 140.266 52.8253 140.555 53.1373C140.845 53.4493 140.991 53.8675 140.991 54.3952C140.991 54.83 140.869 55.225 140.621 55.5835C140.374 55.9419 139.997 56.2274 139.488 56.4398C138.978 56.6522 138.354 56.7584 137.611 56.7584C136.927 56.7518 136.271 56.6389 135.65 56.4132Z" fill="#333333"/>
<path d="M164.368 47.7588V56.6905H163.684V52.442H157.408V56.6905H156.724V47.7588H157.408V51.8678H163.684V47.7588H164.368Z" fill="#333333"/>
<path d="M34.7001 23.938C34.9339 23.9704 35.185 23.9884 35.4432 24.0028C35.1815 23.992 34.9373 23.974 34.7001 23.938Z" fill="#1D9A99"/>
<path d="M35.9804 24.0099C36.12 24.0099 36.256 24.0064 36.3955 24.0029C36.256 24.0099 36.12 24.0134 35.9804 24.0099C35.8897 24.0134 35.799 24.0134 35.7083 24.0064C35.799 24.0099 35.8897 24.0099 35.9804 24.0099Z" fill="#1D9A99"/>
<path d="M36.3921 24.0093C36.6607 23.9987 36.9223 23.981 37.177 23.9526C36.9223 23.981 36.6607 23.9987 36.3921 24.0093Z" fill="#1D9A99"/>
<path d="M29.5023 50.8434C28.2743 51.9453 27.0324 53.0572 25.7556 54.1027H28.6371C29.415 53.4256 30.179 52.7386 30.943 52.0548L31.5709 51.4906C31.8082 51.2748 32.0524 51.0591 32.2966 50.8434H29.5023ZM42.7132 18.0206L42.0818 18.2165C40.5748 18.6845 38.8654 18.9201 37.006 18.9201C33.5071 18.9201 30.629 18.0671 30.6011 18.0605L29.9593 17.8613L16.8006 23.7859L20.8403 37.1055L25.1242 35.987L24.4056 46.8637L24.2451 49.2767C25.494 48.4138 26.694 47.4579 27.8627 46.4654L28.0336 43.85L28.8429 31.6323L23.1951 33.1126L20.8996 25.5484L28.6406 22.0666C28.8011 22.7736 29.1534 23.61 29.879 24.3834C31.1837 25.7807 33.235 26.491 35.9804 26.491C39.898 26.491 41.9144 25.0638 42.9156 23.8656C43.4318 23.2449 43.7388 22.6276 43.9202 22.1164L52.4705 25.7774L52.2089 26.5873L51.424 29.0036C52.788 28.3198 54.1904 27.6859 55.6242 27.1084L56.3533 24.8647L56.6393 23.9851L42.7132 18.0206ZM40.8155 22.3919C40.7666 22.4483 40.7143 22.5048 40.6585 22.5579C40.5364 22.684 40.4038 22.7968 40.2573 22.9031C40.2154 22.9329 40.1736 22.9628 40.1282 22.9927C40.0166 23.069 39.9015 23.142 39.7759 23.2084C39.7236 23.2383 39.6712 23.2648 39.6189 23.2914C39.4898 23.3578 39.3538 23.4208 39.2177 23.4773C39.1863 23.4905 39.148 23.5005 39.1131 23.5171C39.0398 23.547 38.9631 23.5735 38.8863 23.6001C38.7886 23.6333 38.691 23.6631 38.5898 23.693C38.5828 23.693 38.5758 23.6963 38.5689 23.6963C38.4642 23.7262 38.3596 23.7528 38.2479 23.7793H38.2375C38.1293 23.8059 38.0142 23.8291 37.9026 23.8523C37.6688 23.8955 37.4281 23.9287 37.177 23.9552C36.9258 23.9818 36.6642 23.9984 36.3955 24.0083C36.2595 24.0117 36.1199 24.0116 35.9804 24.0116H35.8444C35.799 24.0116 35.7537 24.0083 35.7083 24.0083C35.6211 24.005 35.5339 24.005 35.4467 24.0017C35.4432 24.0017 35.4432 24.0017 35.4432 24.0017C35.185 23.9884 34.9339 23.9718 34.7001 23.9419C34.6478 23.9386 34.592 23.9287 34.5397 23.922C34.4804 23.9154 34.428 23.9054 34.3722 23.8988C34.2501 23.8822 34.135 23.859 34.0199 23.8357C33.9257 23.8158 33.8315 23.7959 33.7408 23.7694C33.6815 23.7528 33.6187 23.7395 33.5629 23.7196C33.5001 23.7063 33.4408 23.6864 33.3815 23.6631C33.3605 23.6598 33.3431 23.6532 33.3222 23.6432C33.235 23.6134 33.1547 23.5868 33.0745 23.5536C33.0605 23.547 33.0431 23.5436 33.0291 23.5337C32.9349 23.5005 32.8477 23.4574 32.7605 23.4142C32.7605 23.4109 32.757 23.4109 32.757 23.4109C32.6663 23.3644 32.5791 23.318 32.4954 23.2682C32.4326 23.2283 32.3698 23.1918 32.314 23.152C32.2791 23.1288 32.2442 23.1055 32.2163 23.079C32.1675 23.0458 32.1186 23.0093 32.0768 22.9694C31.9896 22.8997 31.9163 22.8267 31.8396 22.7504C31.557 22.455 31.3826 22.1397 31.2744 21.8509C32.4326 22.1098 34.2745 22.4085 36.556 22.4085C38.0875 22.4085 39.6119 22.2724 41.1085 22.0036C41.0283 22.133 40.9306 22.2658 40.8155 22.3919ZM52.6694 36.1961L53.245 34.4237C52.3171 34.8319 51.3996 35.2601 50.503 35.7115L52.6694 36.1961ZM44.8272 38.9078L45.0191 40.9756C46.0761 40.2919 47.1611 39.6281 48.2739 38.9908L48.0855 36.9794C46.9762 37.6001 45.8912 38.244 44.8272 38.9078ZM44.2447 30.9718L44.0912 30.9386L44.1016 31.0648L44.297 33.1458C45.1203 32.6015 45.9645 32.0638 46.8227 31.546L44.2447 30.9718Z" fill="#1D9A99"/>
<path d="M73.3492 32.1579C73.2795 31.5472 73.1888 30.9365 73.0876 30.3324C72.7911 28.5932 72.3585 26.8938 71.8003 25.2509C71.6399 24.7729 71.4654 24.2983 71.284 23.827C71.0468 23.2163 70.7922 22.6155 70.5166 22.028C69.0828 22.0712 67.6316 22.1907 66.1769 22.3898C66.4699 22.9574 66.742 23.5349 66.9967 24.1224C67.192 24.5738 67.3804 25.0318 67.5548 25.4998C68.1549 27.083 68.6258 28.7293 68.9433 30.4187C69.0549 31.0128 69.1526 31.6169 69.2293 32.221C69.3863 33.4557 69.4665 34.7136 69.4665 35.9882C69.4665 37.2494 69.3863 38.4974 69.2328 39.7189C69.1561 40.3362 69.0584 40.9536 68.9433 41.561C68.4444 44.1764 67.5967 46.6757 66.4525 49.0223C66.1246 49.6994 65.7687 50.3666 65.3885 51.0171C64.3803 52.753 63.2012 54.3893 61.8686 55.8995C61.0697 56.8089 60.2185 57.6752 59.315 58.4984C54.9788 62.4282 49.5053 65.2395 43.4249 66.441C42.1306 66.6966 40.8085 66.8758 39.4619 66.982C38.5793 67.055 37.6863 67.0849 36.7863 67.0849C36.1199 67.0849 35.4571 67.065 34.8083 67.0252C33.9396 66.9787 33.0815 66.899 32.2338 66.7829C30.1686 66.5074 28.1662 66.0493 26.244 65.422C25.5393 65.1963 24.8486 64.9441 24.1683 64.6752C21.7159 63.6961 19.4135 62.4348 17.3065 60.9412C16.6576 60.4832 16.0297 59.9986 15.4157 59.4941C13.6226 58.0171 11.997 56.3542 10.5771 54.542C10.1655 54.0142 9.7713 53.4799 9.39454 52.9289C8.91312 52.2319 8.4666 51.515 8.04449 50.7815C6.12581 50.2803 4.24202 49.5003 2.44544 48.5278C2.80476 49.414 3.20245 50.2869 3.63153 51.1366C3.97689 51.817 4.34319 52.4841 4.73041 53.138C6.07 55.395 7.66424 57.4993 9.48175 59.4111C10.1655 60.1347 10.8876 60.835 11.6342 61.5022C14.1633 63.7625 17.0309 65.6876 20.1566 67.2011C20.8543 67.5396 21.5624 67.8549 22.2845 68.1503C24.2765 68.9668 26.3591 69.6207 28.515 70.092C29.2755 70.258 30.0465 70.404 30.8244 70.5235C32.021 70.7094 33.235 70.8421 34.4664 70.9152C35.2339 70.9616 36.0048 70.9849 36.7863 70.9849C36.9642 70.9849 37.1421 70.9849 37.3165 70.9815C49.1355 70.8189 59.6255 65.3291 66.2397 56.9251C66.7525 56.2746 67.2478 55.6041 67.7118 54.917C68.6572 53.5164 69.5049 52.0493 70.241 50.5226C70.534 49.9152 70.8061 49.3011 71.0643 48.6805C72.0062 46.3836 72.7004 43.9706 73.1155 41.468C73.2132 40.8706 73.2969 40.2665 73.3667 39.6591C73.4992 38.4543 73.569 37.2262 73.569 35.9849C73.569 34.6937 73.4923 33.4125 73.3492 32.1579ZM36.7863 0.984863C16.5041 0.984863 0 16.6876 0 35.9849C0 39.6392 0.593049 43.1641 1.68844 46.4766L3.185 47.2864C4.49668 47.9934 5.81185 48.5676 7.10608 49.0024C5.17694 45.0394 4.10248 40.6316 4.10248 35.9849C4.10248 18.835 18.7647 4.88482 36.7863 4.88482C49.1216 4.88482 59.8801 11.4201 65.4408 21.0456C65.6152 21.0157 65.7862 20.9925 65.9641 20.9692C67.2478 20.7966 68.5456 20.6771 69.8293 20.6174C63.8396 9.00052 51.281 0.984863 36.7863 0.984863Z" fill="#333333"/>
<path d="M71.2789 23.8285C69.8591 23.8485 68.4323 23.9447 66.9916 24.1206C64.6682 24.4028 62.3239 24.8873 59.9971 25.5777C58.504 26.0225 57.0458 26.5369 55.619 27.1078C54.1853 27.682 52.7829 28.3193 51.4189 29.003C49.8386 29.793 48.3036 30.646 46.821 31.5455C45.9629 32.0633 45.1187 32.601 44.2954 33.1453C39.4463 36.3515 35.1764 39.9461 31.5693 43.1823L30.9414 43.7465C29.9262 44.656 28.9076 45.5754 27.861 46.4649C26.6924 47.4573 25.4923 48.4132 24.2435 49.2762C21.7248 51.0154 19.0002 52.3862 15.885 52.9537C14.8559 53.1396 13.8198 53.2292 12.7802 53.2292C11.65 53.2292 10.5162 53.1263 9.38942 52.9272C7.43237 52.5853 5.49625 51.9646 3.6299 51.1349C3.20081 50.2852 2.80313 49.4123 2.44381 48.526C4.24039 49.4985 6.12418 50.2752 8.04286 50.7797C10.5232 51.4303 13.0558 51.6161 15.5257 51.1647C18.8188 50.564 21.7108 48.9111 24.4074 46.8632C25.6528 45.9205 26.8529 44.8949 28.0355 43.8461C28.5692 43.3748 29.0994 42.8968 29.6262 42.4222L30.2576 41.8546C34.1473 38.3696 38.787 34.4729 44.1035 31.0576C44.1523 31.0277 44.1977 30.9945 44.2465 30.968C46.7548 29.3648 49.4095 27.8712 52.2073 26.5801C53.5573 25.9561 54.9388 25.3786 56.3516 24.8608C57.3598 24.4891 58.3889 24.1439 59.432 23.8352C61.6751 23.1714 63.9321 22.6868 66.1787 22.3847C67.6369 22.1889 69.0847 22.0661 70.5184 22.0229C70.787 22.6204 71.0417 23.2178 71.2789 23.8285Z" fill="#333333"/>
<path d="M71.7969 25.2524L71.3015 25.2591C70.0526 25.279 68.7968 25.3587 67.5514 25.4981C67.3804 25.0334 67.1886 24.5753 66.9932 24.1206C64.6699 24.4028 62.3256 24.8873 59.9988 25.5777C58.5057 26.0225 57.0475 26.5369 55.6207 27.1078C54.1869 27.682 52.7845 28.3193 51.4205 29.003C49.8402 29.793 48.3053 30.646 46.8227 31.5455C45.9645 32.0633 45.1203 32.601 44.297 33.1453C39.448 36.3515 35.1781 39.9461 31.5709 43.1823L30.943 43.7465C29.9279 44.656 28.9092 45.5753 27.8627 46.4649C26.694 47.4573 25.494 48.4132 24.2451 49.2761C21.7264 51.0154 19.0019 52.3862 15.8866 52.9537C14.8575 53.1396 13.8215 53.2292 12.7819 53.2292C11.6516 53.2292 10.5178 53.1263 9.39106 52.9272C9.76781 53.4781 10.162 54.0158 10.5737 54.5403C10.0888 54.4872 9.60385 54.4208 9.11546 54.3345C7.66424 54.0822 6.19907 53.6806 4.72693 53.1363C4.33621 52.4824 3.96992 51.8153 3.62805 51.1349C3.19896 50.2852 2.80127 49.4122 2.44196 48.526C4.23853 49.4985 6.12233 50.2752 8.041 50.7797C10.5213 51.4303 13.054 51.6161 15.5238 51.1647C18.817 50.564 21.709 48.9111 24.4056 46.8632C25.651 45.9205 26.851 44.8949 28.0336 43.8461C28.5674 43.3748 29.0976 42.8968 29.6244 42.4222L30.2558 41.8546C34.1455 38.3696 38.7852 34.4729 44.1017 31.0576C44.1505 31.0277 44.1958 30.9945 44.2447 30.968C46.7529 29.3648 49.4077 27.8712 52.2054 26.5801C53.5555 25.9561 54.9369 25.3786 56.3498 24.8608C57.358 24.4891 58.3871 24.1439 59.4301 23.8352C61.6732 23.1714 63.9303 22.6868 66.1769 22.3847C67.6351 22.1889 69.0828 22.0661 70.5166 22.0229C70.7887 22.6138 71.0433 23.2112 71.2841 23.8219C71.4655 24.2999 71.6364 24.7745 71.7969 25.2524Z" fill="#333333"/>
<path d="M73.3492 32.1581C71.9922 32.1084 70.6177 32.1283 69.2293 32.2212C66.1839 32.4203 63.0756 32.9746 59.9988 33.8874C55.8265 35.1288 51.9089 36.9178 48.2739 38.9988C47.1611 39.6361 46.0762 40.2999 45.0191 40.9837C40.1911 44.1003 35.9281 47.6219 32.2931 50.8514C32.0489 51.0671 31.8082 51.2829 31.5675 51.4986L30.9395 52.0629C30.1791 52.7466 29.4116 53.437 28.6336 54.1107C25.2498 57.0581 21.6566 59.7765 17.2995 60.9481C16.8355 61.0743 16.3611 61.1805 15.8832 61.2701C14.8541 61.4593 13.818 61.5456 12.7784 61.5456C12.3982 61.5456 12.0144 61.5323 11.6342 61.5091C10.8842 60.8419 10.1655 60.1449 9.48178 59.418C11.4563 59.7864 13.4552 59.8429 15.4122 59.501C15.4506 59.4977 15.4855 59.491 15.5239 59.4811C19.3752 58.7774 22.6718 56.6366 25.7556 54.1107C27.0324 53.0652 28.2743 51.9533 29.5023 50.8514C29.5441 50.8115 29.586 50.775 29.6279 50.7385L30.2593 50.1743C34.3234 46.5299 39.2073 42.4408 44.8308 38.9192C45.8913 38.2554 46.9797 37.6114 48.0925 36.9941C48.8809 36.556 49.6867 36.1311 50.5031 35.7229C51.4031 35.2715 52.3171 34.8433 53.245 34.4351C55.2369 33.5621 57.3021 32.7921 59.4301 32.1548C62.5977 31.2122 65.7966 30.6413 68.9433 30.4222C70.3387 30.3227 71.7201 30.2961 73.0876 30.3393C73.1888 30.9334 73.2795 31.5441 73.3492 32.1581Z" fill="#333333"/>
<path d="M73.3667 39.6587C73.3004 40.2661 73.2167 40.8702 73.1155 41.4676C71.741 41.4211 70.3456 41.4477 68.9398 41.5572C65.985 41.7729 62.9779 42.3173 59.9952 43.2068C48.3367 46.672 38.677 54.432 31.564 60.8113L30.936 61.3789C29.4046 62.7563 27.8557 64.147 26.2335 65.4216C24.9672 66.4239 23.659 67.3533 22.2776 68.1498C21.5554 67.8544 20.8473 67.5391 20.1496 67.2006C21.545 66.4969 22.8741 65.634 24.1579 64.6748C26.0521 63.2641 27.8452 61.6477 29.6209 60.0546L30.2523 59.4903C37.5153 52.9782 47.3948 45.0456 59.4266 41.4709C62.6919 40.5017 65.992 39.9209 69.2293 39.7218C70.6247 39.6255 72.0062 39.6089 73.3667 39.6587Z" fill="#333333"/>
<path d="M71.0643 48.6812C70.8061 49.3051 70.534 49.9192 70.241 50.5266C68.6398 50.593 67.0176 50.7523 65.3885 51.0178C63.5919 51.3032 61.7918 51.7148 59.9987 52.2492C50.0216 55.2132 41.5097 61.327 34.8048 67.0259C33.6745 67.9851 32.5931 68.9343 31.5675 69.857L30.9395 70.4213C30.9012 70.4578 30.8593 70.491 30.8209 70.5275C30.043 70.408 29.272 70.262 28.5115 70.096C28.8848 69.7641 29.2546 69.4289 29.6244 69.097L30.2558 68.5294C30.8942 67.9585 31.55 67.3744 32.2303 66.7836C39.2701 60.6598 48.4518 53.7693 59.4266 50.51C61.7639 49.8163 64.1187 49.3217 66.4525 49.023C68.0014 48.8206 69.5433 48.7077 71.0643 48.6812Z" fill="#333333"/>
<path d="M67.7118 54.9165C67.2479 55.6036 66.756 56.2707 66.2397 56.9246C64.164 57.2167 62.0779 57.6647 59.9988 58.2854C59.7685 58.3518 59.5418 58.4248 59.315 58.4945C53.4857 60.32 48.1623 63.211 43.4214 66.4372C41.2655 67.9042 39.2247 69.4409 37.3165 70.981C37.1386 70.9843 36.9607 70.9843 36.7828 70.9843C36.0048 70.9843 35.2304 70.9611 34.4664 70.918C36.0397 69.6036 37.7072 68.2793 39.4619 66.9815C45.197 62.7397 51.888 58.7899 59.4266 56.5495C60.2395 56.3072 61.0523 56.0915 61.8686 55.899C63.8187 55.4343 65.7722 55.1057 67.7118 54.9165Z" fill="#333333"/>
</svg>
