<svg width="196" height="196" viewBox="0 0 196 196" fill="none" xmlns="http://www.w3.org/2000/svg">
<mask id="path-1-outside-1_31_2076" maskUnits="userSpaceOnUse" x="1" y="1" width="194" height="194" fill="black">
<rect fill="white" x="1" y="1" width="194" height="194"/>
<path d="M6.69885 130.818C5.39361 130.818 4.28416 130.389 3.3705 129.53C2.45683 128.671 2 127.628 2 126.401V6.60065C2 5.25112 2.45683 4.14697 3.3705 3.28818C4.28416 2.42939 5.39361 2 6.69885 2H92.8443C94.2801 2 95.4548 2.42939 96.3685 3.28818C97.2821 4.14697 97.739 5.25112 97.739 6.60065V18.7463C97.739 19.9732 97.2821 21.016 96.3685 21.8748C95.4548 22.7335 94.2801 23.1629 92.8443 23.1629H28.431V55.7355H88.5371C89.9728 55.7355 91.1475 56.1649 92.0612 57.0236C92.9749 57.7597 93.4317 58.8026 93.4317 60.1521V71.5617C93.4317 72.9112 92.9749 74.0153 92.0612 74.8741C91.1475 75.6102 89.9728 75.9783 88.5371 75.9783H28.431V109.655H94.4106C95.8464 109.655 97.0211 110.084 97.9347 110.943C98.8484 111.802 99.3052 112.906 99.3052 114.256V126.401C99.3052 127.628 98.8484 128.671 97.9347 129.53C97.0211 130.389 95.8464 130.818 94.4106 130.818H6.69885Z"/>
<path d="M136.243 194C124.627 194 114.642 192.221 106.288 188.663C97.9347 184.983 91.4086 179.401 86.7097 171.917C82.0109 164.311 79.4657 154.864 79.0741 143.577C78.9436 138.302 78.8783 133.088 78.8783 127.935C78.8783 122.782 78.9436 117.507 79.0741 112.109C79.4657 100.944 82.0761 91.6204 86.9055 84.1367C91.7349 76.653 98.3263 71.0096 106.68 67.2064C115.164 63.4032 125.018 61.5016 136.243 61.5016C147.468 61.5016 157.323 63.4032 165.807 67.2064C174.291 71.0096 180.948 76.653 185.777 84.1367C190.606 91.6204 193.217 100.944 193.608 112.109C193.869 117.507 194 122.782 194 127.935C194 133.088 193.869 138.302 193.608 143.577C193.217 154.864 190.672 164.311 185.973 171.917C181.274 179.401 174.683 184.983 166.199 188.663C157.845 192.221 147.86 194 136.243 194ZM136.243 172.837C144.727 172.837 151.645 170.506 156.997 165.844C162.348 161.059 165.22 153.33 165.611 142.657C165.872 137.259 166.003 132.29 166.003 127.751C166.003 123.089 165.872 118.12 165.611 112.845C165.35 105.729 163.914 99.9629 161.304 95.5463C158.824 91.007 155.43 87.7559 151.123 85.793C146.816 83.7074 141.856 82.6645 136.243 82.6645C130.761 82.6645 125.867 83.7074 121.559 85.793C117.252 87.7559 113.793 91.007 111.183 95.5463C108.703 99.9629 107.332 105.729 107.071 112.845C106.941 118.12 106.876 123.089 106.876 127.751C106.876 132.29 106.941 137.259 107.071 142.657C107.463 153.33 110.334 161.059 115.686 165.844C121.037 170.506 127.89 172.837 136.243 172.837Z"/>
</mask>
<path d="M6.69885 130.818C5.39361 130.818 4.28416 130.389 3.3705 129.53C2.45683 128.671 2 127.628 2 126.401V6.60065C2 5.25112 2.45683 4.14697 3.3705 3.28818C4.28416 2.42939 5.39361 2 6.69885 2H92.8443C94.2801 2 95.4548 2.42939 96.3685 3.28818C97.2821 4.14697 97.739 5.25112 97.739 6.60065V18.7463C97.739 19.9732 97.2821 21.016 96.3685 21.8748C95.4548 22.7335 94.2801 23.1629 92.8443 23.1629H28.431V55.7355H88.5371C89.9728 55.7355 91.1475 56.1649 92.0612 57.0236C92.9749 57.7597 93.4317 58.8026 93.4317 60.1521V71.5617C93.4317 72.9112 92.9749 74.0153 92.0612 74.8741C91.1475 75.6102 89.9728 75.9783 88.5371 75.9783H28.431V109.655H94.4106C95.8464 109.655 97.0211 110.084 97.9347 110.943C98.8484 111.802 99.3052 112.906 99.3052 114.256V126.401C99.3052 127.628 98.8484 128.671 97.9347 129.53C97.0211 130.389 95.8464 130.818 94.4106 130.818H6.69885Z" fill="#333333"/>
<path d="M136.243 194C124.627 194 114.642 192.221 106.288 188.663C97.9347 184.983 91.4086 179.401 86.7097 171.917C82.0109 164.311 79.4657 154.864 79.0741 143.577C78.9436 138.302 78.8783 133.088 78.8783 127.935C78.8783 122.782 78.9436 117.507 79.0741 112.109C79.4657 100.944 82.0761 91.6204 86.9055 84.1367C91.7349 76.653 98.3263 71.0096 106.68 67.2064C115.164 63.4032 125.018 61.5016 136.243 61.5016C147.468 61.5016 157.323 63.4032 165.807 67.2064C174.291 71.0096 180.948 76.653 185.777 84.1367C190.606 91.6204 193.217 100.944 193.608 112.109C193.869 117.507 194 122.782 194 127.935C194 133.088 193.869 138.302 193.608 143.577C193.217 154.864 190.672 164.311 185.973 171.917C181.274 179.401 174.683 184.983 166.199 188.663C157.845 192.221 147.86 194 136.243 194ZM136.243 172.837C144.727 172.837 151.645 170.506 156.997 165.844C162.348 161.059 165.22 153.33 165.611 142.657C165.872 137.259 166.003 132.29 166.003 127.751C166.003 123.089 165.872 118.12 165.611 112.845C165.35 105.729 163.914 99.9629 161.304 95.5463C158.824 91.007 155.43 87.7559 151.123 85.793C146.816 83.7074 141.856 82.6645 136.243 82.6645C130.761 82.6645 125.867 83.7074 121.559 85.793C117.252 87.7559 113.793 91.007 111.183 95.5463C108.703 99.9629 107.332 105.729 107.071 112.845C106.941 118.12 106.876 123.089 106.876 127.751C106.876 132.29 106.941 137.259 107.071 142.657C107.463 153.33 110.334 161.059 115.686 165.844C121.037 170.506 127.89 172.837 136.243 172.837Z" fill="#29A6FA"/>
<path d="M3.3705 129.53L3.23352 129.675L3.23352 129.675L3.3705 129.53ZM3.3705 3.28818L3.50747 3.43391L3.50747 3.43391L3.3705 3.28818ZM96.3685 3.28818L96.2315 3.43391L96.2315 3.43391L96.3685 3.28818ZM96.3685 21.8748L96.2315 21.729L96.3685 21.8748ZM28.431 23.1629V22.9629H28.231V23.1629H28.431ZM28.431 55.7355H28.231V55.9355H28.431V55.7355ZM92.0612 57.0236L91.9242 57.1694L91.9298 57.1746L91.9357 57.1794L92.0612 57.0236ZM92.0612 74.8741L92.1867 75.0299L92.1926 75.0251L92.1982 75.0199L92.0612 74.8741ZM28.431 75.9783V75.7783H28.231V75.9783H28.431ZM28.431 109.655H28.231V109.855H28.431V109.655ZM97.9347 110.943L97.7978 111.089L97.7978 111.089L97.9347 110.943ZM97.9347 129.53L97.7978 129.384L97.7978 129.384L97.9347 129.53ZM106.288 188.663L106.208 188.846L106.21 188.847L106.288 188.663ZM86.7097 171.917L86.5396 172.022L86.5403 172.023L86.7097 171.917ZM79.0741 143.577L78.8741 143.582L78.8742 143.584L79.0741 143.577ZM79.0741 112.109L78.8742 112.102L78.8742 112.104L79.0741 112.109ZM86.9055 84.1367L87.0736 84.2452L87.0736 84.2452L86.9055 84.1367ZM106.68 67.2064L106.598 67.0239L106.597 67.0244L106.68 67.2064ZM193.608 112.109L193.409 112.116L193.409 112.118L193.608 112.109ZM193.608 143.577L193.409 143.567L193.409 143.57L193.608 143.577ZM185.973 171.917L186.142 172.023L186.143 172.022L185.973 171.917ZM166.199 188.663L166.277 188.847L166.278 188.847L166.199 188.663ZM156.997 165.844L157.128 165.995L157.13 165.993L156.997 165.844ZM165.611 142.657L165.411 142.647L165.411 142.65L165.611 142.657ZM165.611 112.845L165.411 112.852L165.411 112.855L165.611 112.845ZM161.304 95.5463L161.128 95.6423L161.132 95.6481L161.304 95.5463ZM151.123 85.793L151.036 85.973L151.04 85.975L151.123 85.793ZM121.559 85.793L121.642 85.975L121.647 85.973L121.559 85.793ZM111.183 95.5463L111.009 95.4466L111.008 95.4484L111.183 95.5463ZM107.071 112.845L106.872 112.837L106.871 112.84L107.071 112.845ZM107.071 142.657L106.871 142.662L106.872 142.664L107.071 142.657ZM115.686 165.844L115.553 165.993L115.555 165.995L115.686 165.844ZM6.69885 130.618C5.44221 130.618 4.3824 130.206 3.50747 129.384L3.23352 129.675C4.18592 130.571 5.34501 131.018 6.69885 131.018V130.618ZM3.50747 129.384C2.63302 128.562 2.2 127.572 2.2 126.401H1.8C1.8 127.685 2.28064 128.78 3.23352 129.675L3.50747 129.384ZM2.2 126.401V6.60065H1.8V126.401H2.2ZM2.2 6.60065C2.2 5.30161 2.63732 4.25179 3.50747 3.43391L3.23352 3.14245C2.27634 4.04214 1.8 5.20063 1.8 6.60065H2.2ZM3.50747 3.43391C4.38241 2.61153 5.44221 2.2 6.69885 2.2V1.8C5.34501 1.8 4.18592 2.24726 3.23352 3.14245L3.50747 3.43391ZM6.69885 2.2H92.8443V1.8H6.69885V2.2ZM92.8443 2.2C94.2371 2.2 95.3603 2.61507 96.2315 3.43391L96.5054 3.14245C95.5493 2.24372 94.3231 1.8 92.8443 1.8V2.2ZM96.2315 3.43391C97.1016 4.2518 97.539 5.30161 97.539 6.60065H97.939C97.939 5.20063 97.4626 4.04214 96.5054 3.14245L96.2315 3.43391ZM97.539 6.60065V18.7463H97.939V6.60065H97.539ZM97.539 18.7463C97.539 19.9166 97.1059 20.9071 96.2315 21.729L96.5054 22.0205C97.4583 21.1249 97.939 20.0297 97.939 18.7463H97.539ZM96.2315 21.729C95.3603 22.5479 94.2371 22.9629 92.8443 22.9629V23.3629C94.3231 23.3629 95.5493 22.9192 96.5054 22.0205L96.2315 21.729ZM92.8443 22.9629H28.431V23.3629H92.8443V22.9629ZM28.231 23.1629V55.7355H28.631V23.1629H28.231ZM28.431 55.9355H88.5371V55.5355H28.431V55.9355ZM88.5371 55.9355C89.9298 55.9355 91.053 56.3505 91.9242 57.1694L92.1982 56.8779C91.242 55.9792 90.0158 55.5355 88.5371 55.5355V55.9355ZM91.9357 57.1794C92.7948 57.8715 93.2317 58.8529 93.2317 60.1521H93.6317C93.6317 58.7523 93.1549 57.648 92.1867 56.8679L91.9357 57.1794ZM93.2317 60.1521V71.5617H93.6317V60.1521H93.2317ZM93.2317 71.5617C93.2317 72.8607 92.7944 73.9105 91.9242 74.7284L92.1982 75.0199C93.1553 74.1202 93.6317 72.9617 93.6317 71.5617H93.2317ZM91.9357 74.7184C91.065 75.4199 89.9377 75.7783 88.5371 75.7783V76.1783C90.0079 76.1783 91.23 75.8006 92.1867 75.0299L91.9357 74.7184ZM88.5371 75.7783H28.431V76.1783H88.5371V75.7783ZM28.231 75.9783V109.655H28.631V75.9783H28.231ZM28.431 109.855H94.4106V109.455H28.431V109.855ZM94.4106 109.855C95.8034 109.855 96.9266 110.27 97.7978 111.089L98.0717 110.797C97.1156 109.899 95.8893 109.455 94.4106 109.455V109.855ZM97.7978 111.089C98.6679 111.907 99.1052 112.957 99.1052 114.256H99.5052C99.5052 112.856 99.0289 111.697 98.0717 110.797L97.7978 111.089ZM99.1052 114.256V126.401H99.5052V114.256H99.1052ZM99.1052 126.401C99.1052 127.572 98.6722 128.562 97.7978 129.384L98.0717 129.675C99.0246 128.78 99.5052 127.685 99.5052 126.401H99.1052ZM97.7978 129.384C96.9266 130.203 95.8034 130.618 94.4106 130.618V131.018C95.8893 131.018 97.1156 130.574 98.0717 129.675L97.7978 129.384ZM94.4106 130.618H6.69885V131.018H94.4106V130.618ZM136.243 193.8C124.646 193.8 114.689 192.024 106.367 188.479L106.21 188.847C114.594 192.418 124.607 194.2 136.243 194.2V193.8ZM106.369 188.48C98.0507 184.815 91.556 179.259 86.8791 171.811L86.5403 172.023C91.2612 179.542 97.8188 185.15 106.208 188.846L106.369 188.48ZM86.8799 171.812C82.2035 164.242 79.6647 154.831 79.274 143.57L78.8742 143.584C79.2667 154.897 81.8182 164.379 86.5396 172.022L86.8799 171.812ZM79.274 143.572C79.1436 138.298 79.0783 133.086 79.0783 127.935H78.6783C78.6783 133.089 78.7436 138.305 78.8742 143.582L79.274 143.572ZM79.0783 127.935C79.0783 122.784 79.1436 117.51 79.274 112.113L78.8742 112.104C78.7436 117.503 78.6783 122.78 78.6783 127.935H79.0783ZM79.274 112.116C79.6646 100.978 82.2681 91.6918 87.0736 84.2452L86.7375 84.0283C81.8841 91.5491 79.2667 100.91 78.8742 112.102L79.274 112.116ZM87.0736 84.2452C91.8815 76.7947 98.4429 71.1763 106.763 67.3884L106.597 67.0244C98.2097 70.8429 91.5882 76.5114 86.7375 84.0283L87.0736 84.2452ZM106.762 67.3889C115.215 63.5994 125.041 61.7016 136.243 61.7016V61.3016C124.996 61.3016 115.113 63.207 106.598 67.0239L106.762 67.3889ZM136.243 61.7016C147.446 61.7016 157.272 63.5994 165.725 67.3889L165.889 67.0239C157.374 63.207 147.491 61.3016 136.243 61.3016V61.7016ZM165.725 67.3889C174.175 71.177 180.802 76.7955 185.609 84.2452L185.945 84.0283C181.094 76.5106 174.406 70.8422 165.889 67.0239L165.725 67.3889ZM185.609 84.2452C190.414 91.6918 193.018 100.978 193.409 112.116L193.808 112.102C193.416 100.91 190.798 91.5491 185.945 84.0283L185.609 84.2452ZM193.409 112.118C193.67 117.513 193.8 122.785 193.8 127.935H194.2C194.2 122.779 194.069 117.5 193.808 112.099L193.409 112.118ZM193.8 127.935C193.8 133.084 193.67 138.295 193.409 143.567L193.808 143.587C194.069 138.308 194.2 133.091 194.2 127.935H193.8ZM193.409 143.57C193.018 154.831 190.479 164.242 185.803 171.812L186.143 172.022C190.864 164.379 193.416 154.897 193.808 143.584L193.409 143.57ZM185.803 171.811C181.127 179.258 174.568 184.815 166.119 188.48L166.278 188.847C174.797 185.151 181.421 179.543 186.142 172.023L185.803 171.811ZM166.12 188.479C157.797 192.024 147.84 193.8 136.243 193.8V194.2C147.88 194.2 157.893 192.418 166.277 188.847L166.12 188.479ZM136.243 173.037C144.766 173.037 151.733 170.695 157.128 165.995L156.865 165.693C151.557 170.318 144.689 172.637 136.243 172.637V173.037ZM157.13 165.993C162.538 161.158 165.418 153.366 165.811 142.664L165.411 142.65C165.021 153.295 162.158 160.961 156.863 165.695L157.13 165.993ZM165.811 142.667C166.072 137.266 166.203 132.294 166.203 127.751H165.803C165.803 132.286 165.672 137.252 165.411 142.647L165.811 142.667ZM166.203 127.751C166.203 123.085 166.072 118.113 165.811 112.835L165.411 112.855C165.672 118.127 165.803 123.093 165.803 127.751H166.203ZM165.811 112.837C165.549 105.701 164.109 99.8988 161.476 95.4446L161.132 95.6481C163.72 100.027 165.151 105.757 165.411 112.852L165.811 112.837ZM161.479 95.4504C158.981 90.8769 155.556 87.5935 151.206 85.611L151.04 85.975C155.304 87.9183 158.667 91.1372 161.128 95.6422L161.479 95.4504ZM151.21 85.613C146.871 83.5121 141.881 82.4645 136.243 82.4645V82.8645C141.831 82.8645 146.76 83.9026 151.036 85.973L151.21 85.613ZM136.243 82.4645C130.736 82.4645 125.81 83.5124 121.472 85.613L121.647 85.973C125.923 83.9023 130.787 82.8645 136.243 82.8645V82.4645ZM121.477 85.611C117.127 87.5931 113.638 90.8752 111.009 95.4466L111.356 95.646C113.948 91.1389 117.377 87.9188 121.642 85.975L121.477 85.611ZM111.008 95.4484C108.508 99.9017 107.133 105.702 106.872 112.837L107.271 112.852C107.532 105.756 108.898 100.024 111.357 95.6442L111.008 95.4484ZM106.871 112.84C106.741 118.117 106.676 123.087 106.676 127.751H107.076C107.076 123.091 107.141 118.124 107.271 112.85L106.871 112.84ZM106.676 127.751C106.676 132.292 106.741 137.262 106.871 142.662L107.271 142.652C107.141 137.255 107.076 132.288 107.076 127.751H106.676ZM106.872 142.664C107.264 153.366 110.144 161.158 115.553 165.993L115.819 165.695C110.525 160.961 107.662 153.295 107.271 142.65L106.872 142.664ZM115.555 165.995C120.949 170.694 127.851 173.037 136.243 173.037V172.637C127.929 172.637 121.126 170.318 115.817 165.693L115.555 165.995Z" fill="white" mask="url(#path-1-outside-1_31_2076)"/>
</svg>
