<svg width="516" height="516" viewBox="0 0 516 516" fill="none" xmlns="http://www.w3.org/2000/svg">
<mask id="path-1-outside-1_31_2078" maskUnits="userSpaceOnUse" x="1" y="1" width="514" height="514" fill="black">
<rect fill="white" x="1" y="1" width="514" height="514"/>
<path d="M14.5303 345.514C11.0496 345.514 8.0911 344.369 5.65466 342.079C3.21822 339.789 2 337.008 2 333.737V14.2684C2 10.6697 3.21822 7.72524 5.65466 5.43516C8.0911 3.14505 11.0496 2 14.5303 2H244.252C248.08 2 251.213 3.14505 253.649 5.43516C256.086 7.72524 257.304 10.6697 257.304 14.2684V46.6569C257.304 49.9284 256.086 52.7093 253.649 54.9994C251.213 57.2895 248.08 58.4345 244.252 58.4345H72.4827V145.295H232.765C236.594 145.295 239.727 146.44 242.163 148.73C244.6 150.693 245.818 153.473 245.818 157.072V187.498C245.818 191.096 244.6 194.041 242.163 196.331C239.727 198.294 236.594 199.275 232.765 199.275H72.4827V289.08H248.428C252.257 289.08 255.39 290.225 257.826 292.515C260.262 294.805 261.481 297.75 261.481 301.348V333.737C261.481 337.008 260.262 339.789 257.826 342.079C255.39 344.369 252.257 345.514 248.428 345.514H14.5303Z"/>
<path d="M359.982 514C329.005 514 302.378 509.256 280.102 499.769C257.826 489.954 240.423 475.068 227.893 455.112C215.362 434.828 208.575 409.637 207.531 379.539C207.183 365.471 207.009 351.567 207.009 337.826C207.009 324.086 207.183 310.018 207.531 295.623C208.575 265.852 215.536 240.988 228.415 221.031C241.293 201.075 258.87 186.026 281.146 175.884C303.77 165.742 330.049 160.671 359.982 160.671C389.916 160.671 416.194 165.742 438.818 175.884C461.443 186.026 479.194 201.075 492.072 221.031C504.95 240.988 511.912 265.852 512.956 295.623C513.652 310.018 514 324.086 514 337.826C514 351.567 513.652 365.471 512.956 379.539C511.912 409.637 505.124 434.828 492.594 455.112C480.064 475.068 462.487 489.954 439.863 499.769C417.587 509.256 390.96 514 359.982 514ZM359.982 457.565C382.606 457.565 401.054 451.349 415.324 438.918C429.595 426.158 437.252 405.548 438.296 377.085C438.993 362.69 439.341 349.44 439.341 337.335C439.341 324.904 438.993 311.654 438.296 297.586C437.6 278.611 433.772 263.235 426.81 251.457C420.197 239.352 411.148 230.682 399.661 225.448C388.175 219.886 374.949 217.105 359.982 217.105C345.364 217.105 332.311 219.886 320.825 225.448C309.339 230.682 300.116 239.352 293.154 251.457C286.541 263.235 282.886 278.611 282.19 297.586C281.842 311.654 281.668 324.904 281.668 337.335C281.668 349.44 281.842 362.69 282.19 377.085C283.235 405.548 290.892 426.158 305.162 438.918C319.433 451.349 337.706 457.565 359.982 457.565Z"/>
</mask>
<path d="M14.5303 345.514C11.0496 345.514 8.0911 344.369 5.65466 342.079C3.21822 339.789 2 337.008 2 333.737V14.2684C2 10.6697 3.21822 7.72524 5.65466 5.43516C8.0911 3.14505 11.0496 2 14.5303 2H244.252C248.08 2 251.213 3.14505 253.649 5.43516C256.086 7.72524 257.304 10.6697 257.304 14.2684V46.6569C257.304 49.9284 256.086 52.7093 253.649 54.9994C251.213 57.2895 248.08 58.4345 244.252 58.4345H72.4827V145.295H232.765C236.594 145.295 239.727 146.44 242.163 148.73C244.6 150.693 245.818 153.473 245.818 157.072V187.498C245.818 191.096 244.6 194.041 242.163 196.331C239.727 198.294 236.594 199.275 232.765 199.275H72.4827V289.08H248.428C252.257 289.08 255.39 290.225 257.826 292.515C260.262 294.805 261.481 297.75 261.481 301.348V333.737C261.481 337.008 260.262 339.789 257.826 342.079C255.39 344.369 252.257 345.514 248.428 345.514H14.5303Z" fill="#333333"/>
<path d="M359.982 514C329.005 514 302.378 509.256 280.102 499.769C257.826 489.954 240.423 475.068 227.893 455.112C215.362 434.828 208.575 409.637 207.531 379.539C207.183 365.471 207.009 351.567 207.009 337.826C207.009 324.086 207.183 310.018 207.531 295.623C208.575 265.852 215.536 240.988 228.415 221.031C241.293 201.075 258.87 186.026 281.146 175.884C303.77 165.742 330.049 160.671 359.982 160.671C389.916 160.671 416.194 165.742 438.818 175.884C461.443 186.026 479.194 201.075 492.072 221.031C504.95 240.988 511.912 265.852 512.956 295.623C513.652 310.018 514 324.086 514 337.826C514 351.567 513.652 365.471 512.956 379.539C511.912 409.637 505.124 434.828 492.594 455.112C480.064 475.068 462.487 489.954 439.863 499.769C417.587 509.256 390.96 514 359.982 514ZM359.982 457.565C382.606 457.565 401.054 451.349 415.324 438.918C429.595 426.158 437.252 405.548 438.296 377.085C438.993 362.69 439.341 349.44 439.341 337.335C439.341 324.904 438.993 311.654 438.296 297.586C437.6 278.611 433.772 263.235 426.81 251.457C420.197 239.352 411.148 230.682 399.661 225.448C388.175 219.886 374.949 217.105 359.982 217.105C345.364 217.105 332.311 219.886 320.825 225.448C309.339 230.682 300.116 239.352 293.154 251.457C286.541 263.235 282.886 278.611 282.19 297.586C281.842 311.654 281.668 324.904 281.668 337.335C281.668 349.44 281.842 362.69 282.19 377.085C283.235 405.548 290.892 426.158 305.162 438.918C319.433 451.349 337.706 457.565 359.982 457.565Z" fill="#29A6FA"/>
<path d="M5.65466 342.079L5.51768 342.225L5.51768 342.225L5.65466 342.079ZM5.65466 5.43516L5.79163 5.58089L5.79163 5.58089L5.65466 5.43516ZM253.649 5.43516L253.512 5.58089L253.512 5.58089L253.649 5.43516ZM72.4827 58.4345V58.2345H72.2827V58.4345H72.4827ZM72.4827 145.295H72.2827V145.495H72.4827V145.295ZM242.163 148.73L242.026 148.875L242.032 148.881L242.038 148.885L242.163 148.73ZM242.163 196.331L242.289 196.487L242.295 196.482L242.3 196.477L242.163 196.331ZM72.4827 199.275V199.075H72.2827V199.275H72.4827ZM72.4827 289.08H72.2827V289.28H72.4827V289.08ZM257.826 292.515L257.689 292.661L257.689 292.661L257.826 292.515ZM257.826 342.079L257.689 341.934L257.689 341.934L257.826 342.079ZM280.102 499.769L280.021 499.952L280.024 499.953L280.102 499.769ZM227.893 455.112L227.722 455.217L227.723 455.218L227.893 455.112ZM207.531 379.539L207.331 379.544L207.331 379.546L207.531 379.539ZM207.531 295.623L207.331 295.616L207.331 295.618L207.531 295.623ZM228.415 221.031L228.583 221.14L228.583 221.14L228.415 221.031ZM281.146 175.884L281.064 175.701L281.063 175.702L281.146 175.884ZM512.956 295.623L512.756 295.63L512.756 295.633L512.956 295.623ZM512.956 379.539L512.756 379.529L512.756 379.532L512.956 379.539ZM492.594 455.112L492.764 455.218L492.764 455.217L492.594 455.112ZM439.863 499.769L439.941 499.953L439.942 499.952L439.863 499.769ZM415.324 438.918L415.456 439.068L415.458 439.067L415.324 438.918ZM438.296 377.085L438.097 377.075L438.097 377.078L438.296 377.085ZM438.296 297.586L438.096 297.593L438.097 297.596L438.296 297.586ZM426.81 251.457L426.635 251.553L426.638 251.559L426.81 251.457ZM399.661 225.448L399.574 225.628L399.579 225.63L399.661 225.448ZM320.825 225.448L320.908 225.63L320.912 225.628L320.825 225.448ZM293.154 251.457L292.981 251.357L292.98 251.359L293.154 251.457ZM282.19 297.586L281.99 297.579L281.99 297.581L282.19 297.586ZM282.19 377.085L281.99 377.09L281.99 377.092L282.19 377.085ZM305.162 438.918L305.029 439.067L305.031 439.068L305.162 438.918ZM14.5303 345.314C11.0982 345.314 8.18934 344.187 5.79163 341.934L5.51768 342.225C7.99285 344.551 11.001 345.714 14.5303 345.714V345.314ZM5.79163 341.934C3.39441 339.68 2.2 336.952 2.2 333.737H1.8C1.8 337.065 3.04203 339.898 5.51768 342.225L5.79163 341.934ZM2.2 333.737V14.2684H1.8V333.737H2.2ZM2.2 14.2684C2.2 10.7201 3.39871 7.83007 5.79163 5.58089L5.51768 5.28943C3.03773 7.62042 1.8 10.6192 1.8 14.2684H2.2ZM5.79163 5.58089C8.18934 3.32719 11.0982 2.2 14.5303 2.2V1.8C11.001 1.8 7.99285 2.96292 5.51768 5.28943L5.79163 5.58089ZM14.5303 2.2H244.252V1.8H14.5303V2.2ZM244.252 2.2C248.037 2.2 251.118 3.33073 253.512 5.58089L253.786 5.28943C251.307 2.95938 248.123 1.8 244.252 1.8V2.2ZM253.512 5.58089C255.905 7.83007 257.104 10.7201 257.104 14.2684H257.504C257.504 10.6192 256.266 7.62041 253.786 5.28943L253.512 5.58089ZM257.104 14.2684V46.6569H257.504V14.2684H257.104ZM257.104 46.6569C257.104 49.8719 255.909 52.6004 253.512 54.8536L253.786 55.1451C256.262 52.8181 257.504 49.985 257.504 46.6569H257.104ZM253.512 54.8536C251.118 57.1038 248.037 58.2345 244.252 58.2345V58.6345C248.123 58.6345 251.307 57.4751 253.786 55.1451L253.512 54.8536ZM244.252 58.2345H72.4827V58.6345H244.252V58.2345ZM72.2827 58.4345V145.295H72.6827V58.4345H72.2827ZM72.4827 145.495H232.765V145.095H72.4827V145.495ZM232.765 145.495C236.551 145.495 239.632 146.625 242.026 148.875L242.3 148.584C239.821 146.254 236.637 145.095 232.765 145.095V145.495ZM242.038 148.885C244.42 150.804 245.618 153.524 245.618 157.072H246.018C246.018 153.423 244.78 150.581 242.289 148.574L242.038 148.885ZM245.618 157.072V187.498H246.018V157.072H245.618ZM245.618 187.498C245.618 191.046 244.419 193.936 242.026 196.185L242.3 196.477C244.78 194.146 246.018 191.147 246.018 187.498H245.618ZM242.038 196.175C239.644 198.104 236.559 199.075 232.765 199.075V199.475C236.629 199.475 239.809 198.484 242.289 196.487L242.038 196.175ZM232.765 199.075H72.4827V199.475H232.765V199.075ZM72.2827 199.275V289.08H72.6827V199.275H72.2827ZM72.4827 289.28H248.428V288.88H72.4827V289.28ZM248.428 289.28C252.214 289.28 255.295 290.411 257.689 292.661L257.963 292.369C255.484 290.039 252.3 288.88 248.428 288.88V289.28ZM257.689 292.661C260.082 294.91 261.281 297.8 261.281 301.348H261.681C261.681 297.699 260.443 294.7 257.963 292.369L257.689 292.661ZM261.281 301.348V333.737H261.681V301.348H261.281ZM261.281 333.737C261.281 336.952 260.086 339.68 257.689 341.934L257.963 342.225C260.439 339.898 261.681 337.065 261.681 333.737H261.281ZM257.689 341.934C255.295 344.184 252.214 345.314 248.428 345.314V345.714C252.3 345.714 255.484 344.555 257.963 342.225L257.689 341.934ZM248.428 345.314H14.5303V345.714H248.428V345.314ZM359.982 513.8C329.024 513.8 302.426 509.059 280.18 499.585L280.024 499.953C302.33 509.453 328.985 514.2 359.982 514.2V513.8ZM280.183 499.586C257.942 489.787 240.57 474.927 228.062 455.005L227.723 455.218C240.275 475.21 257.71 490.121 280.021 499.952L280.183 499.586ZM228.063 455.007C215.555 434.759 208.774 409.604 207.731 379.532L207.331 379.546C208.376 409.67 215.17 434.897 227.722 455.217L228.063 455.007ZM207.731 379.534C207.383 365.468 207.209 351.565 207.209 337.826H206.809C206.809 351.568 206.983 365.474 207.331 379.544L207.731 379.534ZM207.209 337.826C207.209 324.087 207.383 310.021 207.731 295.628L207.331 295.618C206.983 310.015 206.809 324.084 206.809 337.826H207.209ZM207.731 295.63C208.774 265.886 215.728 241.059 228.583 221.14L228.247 220.923C215.344 240.917 208.376 265.818 207.331 295.616L207.731 295.63ZM228.583 221.14C241.44 201.216 258.987 186.192 281.229 176.066L281.063 175.702C258.754 185.859 241.146 200.933 228.247 220.923L228.583 221.14ZM281.228 176.066C303.822 165.938 330.071 160.871 359.982 160.871V160.471C330.026 160.471 303.719 165.546 281.064 175.701L281.228 176.066ZM359.982 160.871C389.893 160.871 416.143 165.938 438.737 176.066L438.9 175.701C416.246 165.546 389.938 160.471 359.982 160.471V160.871ZM438.737 176.066C461.327 186.193 479.048 201.217 491.904 221.14L492.24 220.923C479.34 200.932 461.558 185.858 438.9 175.701L438.737 176.066ZM491.904 221.14C504.758 241.059 511.713 265.886 512.756 295.63L513.156 295.616C512.111 265.818 505.142 240.917 492.24 220.923L491.904 221.14ZM512.756 295.633C513.452 310.024 513.8 324.089 513.8 337.826H514.2C514.2 324.082 513.852 310.011 513.156 295.613L512.756 295.633ZM513.8 337.826C513.8 351.563 513.452 365.464 512.756 379.529L513.156 379.549C513.852 365.478 514.2 351.57 514.2 337.826H513.8ZM512.756 379.532C511.713 409.604 504.932 434.759 492.424 455.007L492.764 455.217C505.317 434.897 512.111 409.67 513.156 379.546L512.756 379.532ZM492.425 455.005C479.917 474.926 462.372 489.786 439.783 499.585L439.942 499.952C462.602 490.122 480.211 475.211 492.764 455.218L492.425 455.005ZM439.784 499.585C417.539 509.059 390.94 513.8 359.982 513.8V514.2C390.98 514.2 417.634 509.453 439.941 499.953L439.784 499.585ZM359.982 457.765C382.645 457.765 401.142 451.538 415.456 439.068L415.193 438.767C400.966 451.161 382.568 457.365 359.982 457.365V457.765ZM415.458 439.067C429.785 426.257 437.451 405.583 438.496 377.092L438.097 377.078C437.053 405.512 429.405 426.06 415.191 438.768L415.458 439.067ZM438.496 377.095C439.192 362.697 439.541 349.444 439.541 337.335H439.141C439.141 349.437 438.793 362.683 438.097 377.075L438.496 377.095ZM439.541 337.335C439.541 324.9 439.192 311.647 438.496 297.576L438.097 297.596C438.793 311.661 439.141 324.907 439.141 337.335H439.541ZM438.496 297.579C437.799 278.582 433.966 263.17 426.982 251.355L426.638 251.559C433.577 263.299 437.401 278.639 438.097 297.593L438.496 297.579ZM426.986 251.361C420.354 239.222 411.274 230.52 399.744 225.266L399.579 225.63C411.022 230.845 420.04 239.482 426.635 251.553L426.986 251.361ZM399.749 225.268C388.231 219.691 374.974 216.905 359.982 216.905V217.305C374.924 217.305 388.12 220.082 399.574 225.628L399.749 225.268ZM359.982 216.905C345.338 216.905 332.255 219.691 320.738 225.268L320.912 225.628C332.368 220.081 345.389 217.305 359.982 217.305V216.905ZM320.742 225.266C309.214 230.52 299.961 239.22 292.981 251.357L293.328 251.557C300.27 239.484 309.464 230.845 320.908 225.63L320.742 225.266ZM292.98 251.359C286.346 263.173 282.687 278.584 281.99 297.579L282.39 297.593C283.086 278.638 286.736 263.296 293.329 251.555L292.98 251.359ZM281.99 297.581C281.642 311.65 281.468 324.902 281.468 337.335H281.868C281.868 324.905 282.042 311.657 282.39 297.591L281.99 297.581ZM281.468 337.335C281.468 349.442 281.642 362.694 281.99 377.09L282.39 377.08C282.042 362.687 281.868 349.438 281.868 337.335H281.468ZM281.99 377.092C283.036 405.583 290.702 426.257 305.029 439.067L305.296 438.768C291.082 426.06 283.433 405.512 282.39 377.078L281.99 377.092ZM305.031 439.068C319.344 451.537 337.667 457.765 359.982 457.765V457.365C337.746 457.365 319.522 451.162 305.294 438.767L305.031 439.068Z" fill="white" mask="url(#path-1-outside-1_31_2078)"/>
</svg>
